M48
;Layer_Color=9474304
;FILE_FORMAT=2:4
INCH,TZ
;TYPE=PLATED
T09F00S00C0.0394
;TYPE=NON_PLATED
%
G90
G05
T09
G00X3165Y57728
M15
G01X3559
M16
G00X3244Y60524
M15
G01Y60917
M16
G00X4819Y62098
M15
G01X5213
M16
G00X6000Y59303
M15
G01Y59697
M16
G00X6984Y58634
M15
G01Y59028
M16
G00X10165Y57728
M15
G01X10559
M16
G00X10244Y60524
M15
G01Y60917
M16
G00X11819Y62098
M15
G01X12213
M16
G00X13000Y59303
M15
G01Y59697
M16
G00X13984Y58634
M15
G01Y59028
M16
M17
M30
