M48
;Layer_Color=9474304
;FILE_FORMAT=2:4
INCH,TZ
;TYPE=PLATED
T01F00S00C0.0118
T02F00S00C0.0236
T03F00S00C0.0276
T04F00S00C0.0295
T05F00S00C0.0300
T06F00S00C0.0307
T07F00S00C0.0315
T08F00S00C0.0394
T10F00S00C0.0413
T11F00S00C0.0520
;TYPE=NON_PLATED
T12F00S00C0.0866
%
T01
X68370Y14020
X65700Y26250
X74160Y23260
X60980Y16490
X31800Y24300
X28530Y19340
X19150Y17970
X18950Y16400
X19660Y23930
X16720Y28530
X10690Y24743
X6590Y22890
X3200Y27910
Y30530
X12220Y17000
X13110Y17280
X4370Y38050
T02
X1957Y11000
Y14000
X5500
Y11000
X11957Y10500
X15500
X23157Y13500
X26700
X27657
X29700Y14900
X31200Y13500
X31157Y11000
X27500Y8000
X23957
X32157Y13500
X35700
X38100Y13800
Y10257
X34700Y11000
X44500Y10600
X48043
X49000Y10100
X49057Y8100
Y6200
X52600
Y8100
X52543Y10100
X52843Y13100
Y15600
X49300
Y13100
X60000Y13500
Y12543
Y9000
Y8043
Y4500
X66000Y5457
Y9000
Y10957
X68000
X67857Y8200
X71400
X71000Y9500
Y13043
Y14000
X68000Y14500
X66000
Y16457
X68000
Y20000
Y21957
X66000Y22000
Y20000
X71000Y19457
Y17543
Y23000
Y24957
Y28500
Y30457
X68000Y31000
X66000
Y27457
Y25543
X68000Y25500
Y27457
X60000Y27000
Y26043
Y22500
Y21500
Y17957
Y17043
X52743Y18100
X52643Y20600
Y22900
X52443Y25200
X52543Y27800
X49000
X47800Y28200
X48900Y25200
X49100Y22900
Y20600
X49200Y18100
X60000Y30543
X44257Y28200
X42400Y28300
Y25800
X38857
Y28300
X36243Y28000
Y25500
X36200Y23043
X38000Y21860
Y18317
X36200Y19500
X32700Y25500
X31700
Y28000
X32700
X28157
X27200
X28157Y25500
X29600Y23343
Y19800
X29700Y18443
X17500Y18500
X23657Y28000
X12000Y25543
X9500
X7000Y25500
X4500
X2000
Y21957
X1957Y20000
Y17000
X5500
Y20000
X4500Y21957
X7000
X9500Y22000
X12000
X13957Y18500
X9744Y38220
X6201
X5201Y46220
X8744
X9701
X13244
X76000Y43500
X77043Y33500
X73500
X71000Y34000
X76000Y47043
X13500Y50000
X11000
Y53543
X13500
X6244Y53764
X3744Y53720
Y50177
X6244Y50220
T03
X13000Y12622
Y14000
X15500Y13878
Y12500
X19419Y11500
X20600
Y15500
X19419
X25122Y10500
X26500
X40219Y11300
X41400
Y15300
X40219
X55000Y14322
Y11700
Y10322
Y7578
Y6200
X63000Y5622
Y7000
Y10000
Y11378
Y14500
Y15878
Y19000
Y20378
Y23500
Y24878
Y28122
Y29500
X55000Y27700
Y26322
Y23700
Y22322
Y19700
Y18322
Y15700
X41400Y19300
X40219
Y23300
X41400
X20600Y23500
X19419
Y19500
X20600
X12378Y18500
X11000
X9000
X8213
X7000Y28500
Y29878
X4000
Y28500
X10000
Y29878
X12244Y37720
Y39098
X11244Y42220
Y43720
X14000
Y42220
X3842Y42467
Y43845
X3744Y39098
Y37720
X61751Y43733
Y44799
Y45865
X64507
Y44799
Y43733
X64500Y47000
X67200
X68381
X68400Y50200
X67022
X71422Y50300
X72800
Y47000
X71619
X61744
T04
X62500Y40000
Y41968
X76500
Y40000
T05
X28809Y11100
X29991
X57900Y11391
Y10209
X58000Y6681
Y5500
X57900Y14709
Y15891
Y19209
Y20391
Y23709
Y24891
Y28209
Y29391
T06
X7500Y10500
Y11500
Y12500
Y13500
X10626
Y12500
Y11500
Y10500
X24074Y15400
X27200
X31574Y15500
X34700
X44674Y15200
Y14200
Y13200
X47800
Y14200
Y15200
X73500Y14874
X74500
X75500
X76500
Y18000
X75500
X74500
X73500
Y19374
X74500
X75500
X76500
Y22500
X75500
X74500
X73500
Y24000
X74500
X75500
X76500
Y27126
X75500
X74500
X73500
Y28500
X74500
X75500
X76500
X47800Y26200
Y25200
Y24200
Y23200
Y21200
Y20200
Y19200
Y18200
Y16200
X44674
Y18200
Y19200
Y20200
Y21200
Y23200
Y24200
Y25200
Y26200
X34700Y23500
Y22500
Y21500
Y20500
Y18500
Y17500
Y16500
X31574
Y17500
Y18500
Y20500
Y21500
Y22500
Y23500
X27200
Y22500
Y21500
Y20500
Y18400
Y17400
Y16400
X24074
Y17400
Y18400
Y20500
Y21500
Y22500
Y23500
X9744Y40820
Y41820
Y42820
Y43820
X6618
Y42820
Y41820
Y40820
X73500Y31626
X74500
X75500
X76500
T07
X29200Y7300
X29987
X37713Y7400
X38500
X69500Y6000
X70287
X36700Y16000
Y16787
X15787Y22500
X15000
X13531Y34220
X12744
X75713Y49000
X76500
T08
X5031Y7500
X6016
X7000
X10031
X11016
X12000
X15031
X16016
X17000
X20000
X20984
X21969
X33016
X34000
X34984
X44116Y7900
X45100
X46084
X74500Y7484
Y6500
Y8468
Y9453
Y10437
Y11421
X20168Y27300
X19184
X18200
X17216
X16231
X15247
X9197Y33720
X8213
X7228
X6244
X5260
X4276
X66531Y34500
X67516
X68500
X68469Y38500
X67484
X66500
X63500Y49016
Y50000
Y50984
T10
X63500Y56500
X66453
X72500
X75453
T11
X66500Y42500
X67498
X68496
X71500
X72498
X73496
T12
X1575Y5512
X41339Y6693
X77165Y5512
X39370Y30512
X1181Y36220
X16142
X61811
X76772
Y61811
X61811
X16142
X1378
M30
